# Blender 3.3.1
# www.blender.org
mtllib rabbit.mtl
o Object_10
v -0.553761 -0.060305 -0.149907
v -0.553761 -0.060305 -0.149907
v -0.553761 -0.060305 -0.149907
v -0.553761 0.241676 -0.148874
v -0.553761 0.241676 -0.148874
v -0.553761 0.241676 -0.148874
v -0.251778 -0.060305 -0.149907
v -0.251778 -0.060305 -0.149907
v -0.251778 -0.060305 -0.149907
v -0.251778 0.241676 -0.148874
v -0.251778 0.241676 -0.148874
v -0.251778 0.241676 -0.148874
v -0.553761 -0.061339 0.152073
v -0.553761 -0.061339 0.152073
v -0.553761 -0.061339 0.152073
v -0.553761 0.240643 0.153107
v -0.553761 0.240643 0.153107
v -0.553761 0.240643 0.153107
v -0.251778 -0.061339 0.152073
v -0.251778 -0.061339 0.152073
v -0.251778 -0.061339 0.152073
v -0.251778 0.240643 0.153107
v -0.251778 0.240643 0.153107
v -0.251778 0.240643 0.153107
vn -0.0000 0.0034 -1.0000
vn 1.0000 -0.0000 -0.0000
vn -0.0000 -0.0034 1.0000
vn -1.0000 -0.0000 -0.0000
vn -0.0000 -1.0000 -0.0034
vn -0.0000 1.0000 0.0034
vt 0.703660 0.497673
vt 0.149891 0.652998
vt 0.403877 0.631601
vt 0.703660 0.647565
vt 0.403877 0.781492
vt 0.703659 0.797456
vt 0.553768 0.497673
vt 0.149891 0.802889
vt 0.334481 0.567637
vt 0.553768 0.647565
vt 0.334481 0.717528
vt 0.703659 0.647565
vt 0.000000 0.652998
vt 0.553768 0.631601
vt 0.553768 0.347782
vt 0.553768 0.781492
vt 0.553768 0.797456
vt 0.553768 0.497673
vt 0.000000 0.802889
vt 0.184590 0.567637
vt 0.703660 0.347782
vt 0.184590 0.717528
vt 0.553768 0.647565
vt 0.703660 0.497673
s 0
usemtl Scene_-_Root
f 1/1/1 4/4/1 10/10/1
f 1/1/1 10/10/1 7/7/1
f 9/9/2 11/11/2 22/22/2
f 9/9/2 22/22/2 20/20/2
f 21/21/3 24/24/3 18/18/3
f 21/21/3 18/18/3 15/15/3
f 14/14/4 16/16/4 5/5/4
f 14/14/4 5/5/4 3/3/4
f 8/8/5 19/19/5 13/13/5
f 8/8/5 13/13/5 2/2/5
f 23/23/6 12/12/6 6/6/6
f 23/23/6 6/6/6 17/17/6
o Object_12
v -0.351636 -0.503762 0.102825
v -0.351636 -0.503762 0.102825
v -0.351636 -0.503762 0.102825
v -0.322106 -0.133050 0.104094
v -0.322106 -0.133050 0.104094
v -0.322106 -0.133050 0.104094
v -0.254804 -0.511475 0.102798
v -0.254804 -0.511475 0.102798
v -0.254804 -0.511475 0.102798
v -0.225274 -0.140764 0.104067
v -0.225274 -0.140764 0.104067
v -0.225274 -0.140764 0.104067
v -0.351636 -0.504226 0.238375
v -0.351636 -0.504226 0.238375
v -0.351636 -0.504226 0.238375
v -0.322106 -0.133514 0.239644
v -0.322106 -0.133514 0.239644
v -0.322106 -0.133514 0.239644
v -0.254804 -0.511940 0.238348
v -0.254804 -0.511940 0.238348
v -0.254804 -0.511940 0.238348
v -0.225274 -0.141227 0.239618
v -0.225274 -0.141227 0.239618
v -0.225274 -0.141227 0.239618
vn -0.0000 0.0034 -1.0000
vn 0.9968 -0.0794 -0.0003
vn -0.0000 -0.0034 1.0000
vn -0.9968 0.0794 0.0003
vn -0.0794 -0.9968 -0.0034
vn 0.0794 0.9968 0.0034
vt 0.983463 0.552145
vt 0.398318 0.883471
vt 0.867967 0.552145
vt 0.983463 0.736734
vt 0.867967 0.736734
vt 0.834830 0.223740
vt 0.935248 0.552145
vt 0.350102 0.883471
vt 0.919176 0.736735
vt 0.935248 0.736734
vt 0.919176 0.921324
vt 0.786614 0.223740
vt 0.398318 0.816190
vt 0.935248 0.552145
vt 0.685338 0.982046
vt 0.935248 0.736734
vt 0.834830 0.291022
vt 0.685338 0.797456
vt 0.350102 0.816190
vt 0.851894 0.736734
vt 0.637122 0.982046
vt 0.851894 0.921324
vt 0.786614 0.291022
vt 0.637123 0.797456
s 0
usemtl Scene_-_Root
f 25/25/7 28/28/7 34/34/7
f 25/25/7 34/34/7 31/31/7
f 33/33/8 35/35/8 46/46/8
f 33/33/8 46/46/8 44/44/8
f 45/45/9 48/48/9 42/42/9
f 45/45/9 42/42/9 39/39/9
f 38/38/10 40/40/10 29/29/10
f 38/38/10 29/29/10 27/27/10
f 32/32/11 43/43/11 37/37/11
f 32/32/11 37/37/11 26/26/11
f 47/47/12 36/36/12 30/30/12
f 47/47/12 30/30/12 41/41/12
o Object_14
v -0.353555 -0.506372 -0.240738
v -0.353555 -0.506372 -0.240738
v -0.353555 -0.506372 -0.240738
v -0.324024 -0.135659 -0.239469
v -0.324024 -0.135659 -0.239469
v -0.324024 -0.135659 -0.239469
v -0.256722 -0.514085 -0.240764
v -0.256722 -0.514085 -0.240764
v -0.256722 -0.514085 -0.240764
v -0.227192 -0.143373 -0.239495
v -0.227192 -0.143373 -0.239495
v -0.227192 -0.143373 -0.239495
v -0.353555 -0.506836 -0.105188
v -0.353555 -0.506836 -0.105188
v -0.353555 -0.506836 -0.105188
v -0.324024 -0.136124 -0.103919
v -0.324024 -0.136124 -0.103919
v -0.324024 -0.136124 -0.103919
v -0.256722 -0.514549 -0.105215
v -0.256722 -0.514549 -0.105215
v -0.256722 -0.514549 -0.105215
v -0.227192 -0.143837 -0.103946
v -0.227192 -0.143837 -0.103946
v -0.227192 -0.143837 -0.103946
vn -0.0000 0.0034 -1.0000
vn 0.9968 -0.0794 -0.0003
vn -0.0000 -0.0034 1.0000
vn -0.9968 0.0794 0.0003
vn -0.0794 -0.9968 -0.0034
vn 0.0794 0.9968 0.0034
vt 0.972883 0.347782
vt 0.738399 0.291022
vt 0.784612 0.736734
vt 0.972883 0.532372
vt 0.784612 0.921324
vt 0.738399 0.291022
vt 0.924667 0.347782
vt 0.690183 0.291021
vt 0.922295 0.000000
vt 0.924668 0.532371
vt 0.922295 0.184589
vt 0.786614 0.291022
vt 0.738399 0.223740
vt 0.851894 0.736735
vt 0.922295 0.000000
vt 0.851894 0.921324
vt 0.738399 0.223740
vt 0.922296 0.184589
vt 0.690183 0.223740
vt 0.855014 0.000000
vt 0.970511 0.000000
vt 0.855014 0.184589
vt 0.786614 0.223740
vt 0.970511 0.184589
s 0
usemtl Scene_-_Root
f 49/49/13 52/52/13 58/58/13
f 49/49/13 58/58/13 55/55/13
f 57/57/14 59/59/14 70/70/14
f 57/57/14 70/70/14 68/68/14
f 69/69/15 72/72/15 66/66/15
f 69/69/15 66/66/15 63/63/15
f 62/62/16 64/64/16 53/53/16
f 62/62/16 53/53/16 51/51/16
f 56/56/17 67/67/17 61/61/17
f 56/56/17 61/61/17 50/50/17
f 71/71/18 60/60/18 54/54/18
f 71/71/18 54/54/18 65/65/18
o Object_16
v -0.330781 0.214003 0.010586
v -0.330781 0.214003 0.010586
v -0.330781 0.214003 0.010586
v -0.302712 0.584821 0.013167
v -0.302712 0.584821 0.013167
v -0.302712 0.584821 0.013167
v -0.240541 0.206967 0.040208
v -0.240541 0.206967 0.040208
v -0.240541 0.206967 0.040208
v -0.212473 0.577784 0.042789
v -0.212473 0.577784 0.042789
v -0.212473 0.577784 0.042789
v -0.364437 0.215834 0.113548
v -0.364437 0.215834 0.113548
v -0.364437 0.215834 0.113548
v -0.336369 0.586652 0.116129
v -0.336369 0.586652 0.116129
v -0.336369 0.586652 0.116129
v -0.274198 0.208797 0.143171
v -0.274198 0.208797 0.143171
v -0.274198 0.208797 0.143171
v -0.246129 0.579615 0.145752
v -0.246129 0.579615 0.145752
v -0.246129 0.579615 0.145752
vn 0.3107 -0.0169 -0.9504
vn 0.9475 -0.0739 0.3110
vn -0.3107 0.0169 0.9504
vn -0.9475 0.0739 -0.3110
vn -0.0755 -0.9971 -0.0069
vn 0.0755 0.9971 0.0069
vt 0.000000 0.987478
vt 0.417354 0.522182
vt 0.870892 0.347782
vt 0.000000 0.802889
vt 0.870892 0.532371
vt 0.417354 0.522182
vt 0.047272 0.987478
vt 0.370082 0.522182
vt 0.350102 0.816190
vt 0.047272 0.802889
vt 0.350102 0.631601
vt 0.370082 0.522182
vt 0.417354 0.468408
vt 0.924667 0.347782
vt 0.417354 0.468408
vt 0.924667 0.532371
vt 0.417354 0.575957
vt 0.417354 0.283819
vt 0.370082 0.468408
vt 0.403877 0.816190
vt 0.370082 0.468408
vt 0.403877 0.631601
vt 0.370082 0.575957
vt 0.370082 0.283819
s 0
usemtl Scene_-_Root
f 73/73/19 76/76/19 82/82/19
f 73/73/19 82/82/19 79/79/19
f 81/81/20 83/83/20 94/94/20
f 81/81/20 94/94/20 92/92/20
f 93/93/21 96/96/21 90/90/21
f 93/93/21 90/90/21 87/87/21
f 86/86/22 88/88/22 77/77/22
f 86/86/22 77/77/22 75/75/22
f 80/80/23 91/91/23 85/85/23
f 80/80/23 85/85/23 74/74/23
f 95/95/24 84/84/24 78/78/24
f 95/95/24 78/78/24 89/89/24
o Object_18
v -0.360772 0.214507 -0.110841
v -0.360772 0.214507 -0.110841
v -0.360772 0.214507 -0.110841
v -0.337082 0.585482 -0.107528
v -0.337082 0.585482 -0.107528
v -0.337082 0.585482 -0.107528
v -0.269970 0.208959 -0.138890
v -0.269970 0.208959 -0.138890
v -0.269970 0.208959 -0.138890
v -0.246280 0.579935 -0.135576
v -0.246280 0.579935 -0.135576
v -0.246280 0.579935 -0.135576
v -0.330630 0.211706 -0.012707
v -0.330630 0.211706 -0.012707
v -0.330630 0.211706 -0.012707
v -0.306940 0.582681 -0.009394
v -0.306940 0.582681 -0.009394
v -0.306940 0.582681 -0.009394
v -0.239829 0.206157 -0.040755
v -0.239829 0.206157 -0.040755
v -0.239829 0.206157 -0.040755
v -0.216139 0.577133 -0.037441
v -0.216139 0.577133 -0.037441
v -0.216139 0.577133 -0.037441
vn -0.2935 0.0273 -0.9556
vn 0.9538 -0.0583 -0.2946
vn 0.2935 -0.0273 0.9556
vn -0.9538 0.0583 0.2946
vn -0.0637 -0.9979 -0.0089
vn 0.0637 0.9979 0.0089
vt 0.047272 0.987408
vt 0.690183 0.291022
vt 0.919176 0.736734
vt 0.047272 0.802889
vt 0.919176 0.921253
vt 0.370082 0.626932
vt 0.094523 0.987408
vt 0.737435 0.291022
vt 0.538206 0.781492
vt 0.094523 0.802889
vt 0.538206 0.966011
vt 0.417333 0.626932
vt 0.690183 0.341996
vt 0.970151 0.736734
vt 0.094524 0.802889
vt 0.970151 0.921252
vt 0.370082 0.575957
vt 0.094523 0.987407
vt 0.737434 0.341996
vt 0.487232 0.781492
vt 0.141775 0.802889
vt 0.487232 0.966011
vt 0.417333 0.575957
vt 0.141775 0.987408
s 0
usemtl Scene_-_Root
f 97/97/25 100/100/25 106/106/25
f 97/97/25 106/106/25 103/103/25
f 105/105/26 107/107/26 118/118/26
f 105/105/26 118/118/26 116/116/26
f 117/117/27 120/120/27 114/114/27
f 117/117/27 114/114/27 111/111/27
f 110/110/28 112/112/28 101/101/28
f 110/110/28 101/101/28 99/99/28
f 104/104/29 115/115/29 109/109/29
f 104/104/29 109/109/29 98/98/29
f 119/119/30 108/108/30 102/102/30
f 119/119/30 102/102/30 113/113/30
o Object_4
v -0.351368 -0.192355 -0.185313
v -0.351368 -0.192355 -0.185313
v -0.351368 -0.192355 -0.185313
v -0.239638 0.162351 -0.184099
v -0.239638 0.162351 -0.184099
v -0.239638 0.162351 -0.184099
v 0.194019 -0.364145 -0.185901
v 0.194019 -0.364145 -0.185901
v 0.194019 -0.364145 -0.185901
v 0.305748 -0.009439 -0.184686
v 0.305748 -0.009439 -0.184686
v 0.305748 -0.009439 -0.184686
v -0.351367 -0.193628 0.186573
v -0.351367 -0.193628 0.186573
v -0.351367 -0.193628 0.186573
v -0.239638 0.161078 0.187788
v -0.239638 0.161078 0.187788
v -0.239638 0.161078 0.187788
v 0.194019 -0.365418 0.185985
v 0.194019 -0.365418 0.185985
v 0.194019 -0.365418 0.185985
v 0.305748 -0.010712 0.187200
v 0.305748 -0.010712 0.187200
v 0.305748 -0.010712 0.187200
vn -0.0000 0.0034 -1.0000
vn 0.9538 -0.3004 -0.0010
vn -0.0000 -0.0034 1.0000
vn -0.9538 0.3004 0.0010
vn -0.3004 -0.9538 -0.0033
vn 0.3004 0.9538 0.0033
vt 0.184590 0.283819
vt 0.369179 0.283819
vt 0.000000 0.468408
vt 0.000000 0.283818
vt 0.184590 0.468408
vt 0.369179 0.283818
vt 0.184589 0.000000
vt 0.369179 0.000000
vt 0.184589 0.468408
vt 0.000000 0.000000
vt 0.184589 0.652998
vt 0.369179 0.000000
vt 0.553768 0.283818
vt 0.000000 0.283819
vt 0.369179 0.283819
vt 0.184590 0.283819
vt 0.184590 0.283818
vt 0.184590 0.283819
vt 0.553768 0.000000
vt 0.000000 0.468408
vt 0.369179 0.567637
vt 0.000000 0.652998
vt 0.184590 0.000000
vt 0.184590 0.567637
s 0
usemtl Scene_-_Root
f 121/121/31 124/124/31 130/130/31
f 121/121/31 130/130/31 127/127/31
f 129/129/32 131/131/32 142/142/32
f 129/129/32 142/142/32 140/140/32
f 141/141/33 144/144/33 138/138/33
f 141/141/33 138/138/33 135/135/33
f 134/134/34 136/136/34 125/125/34
f 134/134/34 125/125/34 123/123/34
f 128/128/35 139/139/35 133/133/35
f 128/128/35 133/133/35 122/122/35
f 143/143/36 132/132/36 126/126/36
f 143/143/36 126/126/36 137/137/36
o Object_6
v -0.202444 -0.486831 -0.254468
v -0.202444 -0.486831 -0.254468
v -0.202444 -0.486831 -0.254468
v -0.203429 -0.432208 -0.254281
v -0.203429 -0.432208 -0.254281
v -0.203429 -0.432208 -0.254281
v 0.255796 -0.478569 -0.254439
v 0.255796 -0.478569 -0.254439
v 0.255796 -0.478569 -0.254439
v 0.254811 -0.423946 -0.254252
v 0.254811 -0.423946 -0.254252
v 0.254811 -0.423946 -0.254252
v -0.202444 -0.487409 -0.085481
v -0.202444 -0.487409 -0.085481
v -0.202444 -0.487409 -0.085481
v -0.203429 -0.432786 -0.085294
v -0.203429 -0.432786 -0.085294
v -0.203429 -0.432786 -0.085294
v 0.255796 -0.479148 -0.085453
v 0.255796 -0.479148 -0.085453
v 0.255796 -0.479148 -0.085453
v 0.254811 -0.424525 -0.085266
v 0.254811 -0.424525 -0.085266
v 0.254811 -0.424525 -0.085266
v -0.061449 -0.321516 -0.253902
v -0.061449 -0.321516 -0.253902
v -0.061449 -0.321516 -0.253902
v 0.020428 -0.058895 -0.253003
v 0.020428 -0.058895 -0.253003
v 0.020428 -0.058895 -0.253003
v 0.256977 -0.436135 -0.254294
v 0.256977 -0.436135 -0.254294
v 0.256977 -0.436135 -0.254294
v 0.338854 -0.173514 -0.253395
v 0.338854 -0.173514 -0.253395
v 0.338854 -0.173514 -0.253395
v -0.061449 -0.322091 -0.085970
v -0.061449 -0.322091 -0.085970
v -0.061449 -0.322091 -0.085970
v 0.020428 -0.059470 -0.085071
v 0.020428 -0.059470 -0.085071
v 0.020428 -0.059470 -0.085071
v 0.256977 -0.436710 -0.086363
v 0.256977 -0.436710 -0.086363
v 0.256977 -0.436710 -0.086363
v 0.338854 -0.174089 -0.085464
v 0.338854 -0.174089 -0.085464
v 0.338854 -0.174089 -0.085464
vn -0.0000 0.0034 -1.0000
vn 0.9998 0.0180 0.0001
vn -0.0000 -0.0034 1.0000
vn -0.9998 -0.0180 -0.0001
vn 0.0180 -0.9998 -0.0034
vn -0.0180 0.9998 0.0034
vn 0.9547 -0.2976 -0.0010
vn -0.9547 0.2976 0.0010
vn -0.3387 -0.9409 -0.0032
vn 0.3387 0.9409 0.0032
vt 0.177008 0.880485
vt 0.787538 0.347782
vt 0.149891 0.964364
vt 0.149891 0.880485
vt 0.176661 0.964364
vt 0.774061 0.223740
vt 0.177008 0.652998
vt 0.787538 0.571521
vt 0.935732 0.184589
vt 0.149891 0.652998
vt 0.962502 0.184589
vt 0.774061 0.000000
vt 0.703660 0.347782
vt 0.149891 0.880486
vt 0.997628 0.000000
vt 0.176661 0.880485
vt 0.690183 0.223740
vt 0.970511 0.000000
vt 0.703660 0.571521
vt 0.935732 0.268467
vt 0.997628 0.227488
vt 0.962502 0.268467
vt 0.690183 0.000000
vt 0.970511 0.227488
vt 0.690183 0.341872
vt 0.870892 0.347782
vt 0.487232 0.916288
vt 0.553768 0.347782
vt 0.487232 0.781492
vt 0.867967 0.736734
vt 0.690183 0.173891
vt 0.870892 0.512995
vt 0.553768 0.932252
vt 0.553768 0.179801
vt 0.553768 0.797456
vt 0.867966 0.571521
vt 0.787538 0.347782
vt 0.403877 0.916288
vt 0.417354 0.451799
vt 0.403877 0.781492
vt 0.784612 0.736734
vt 0.553768 0.457710
vt 0.787538 0.512995
vt 0.637123 0.932252
vt 0.417354 0.283819
vt 0.637123 0.797456
vt 0.784612 0.571521
vt 0.553768 0.289729
s 0
usemtl Scene_-_Root
f 145/145/37 148/148/37 154/154/37
f 145/145/37 154/154/37 151/151/37
f 153/153/38 155/155/38 166/166/38
f 153/153/38 166/166/38 164/164/38
f 165/165/39 168/168/39 162/162/39
f 165/165/39 162/162/39 159/159/39
f 158/158/40 160/160/40 149/149/40
f 158/158/40 149/149/40 147/147/40
f 152/152/41 163/163/41 157/157/41
f 152/152/41 157/157/41 146/146/41
f 167/167/42 156/156/42 150/150/42
f 167/167/42 150/150/42 161/161/42
f 169/169/37 172/172/37 178/178/37
f 169/169/37 178/178/37 175/175/37
f 177/177/43 179/179/43 190/190/43
f 177/177/43 190/190/43 188/188/43
f 189/189/39 192/192/39 186/186/39
f 189/189/39 186/186/39 183/183/39
f 182/182/44 184/184/44 173/173/44
f 182/182/44 173/173/44 171/171/44
f 176/176/45 187/187/45 181/181/45
f 176/176/45 181/181/45 170/170/45
f 191/191/46 180/180/46 174/174/46
f 191/191/46 174/174/46 185/185/46
o Object_8
v -0.198336 -0.489563 0.085031
v -0.198336 -0.489563 0.085031
v -0.198336 -0.489563 0.085031
v -0.199320 -0.434939 0.085218
v -0.199320 -0.434939 0.085218
v -0.199320 -0.434939 0.085218
v 0.259904 -0.481300 0.085059
v 0.259904 -0.481300 0.085059
v 0.259904 -0.481300 0.085059
v 0.258919 -0.426677 0.085246
v 0.258919 -0.426677 0.085246
v 0.258919 -0.426677 0.085246
v -0.198336 -0.490120 0.248123
v -0.198336 -0.490120 0.248123
v -0.198336 -0.490120 0.248123
v -0.199320 -0.435497 0.248310
v -0.199320 -0.435497 0.248310
v -0.199320 -0.435497 0.248310
v 0.259904 -0.481858 0.248151
v 0.259904 -0.481858 0.248151
v 0.259904 -0.481858 0.248151
v 0.258919 -0.427236 0.248338
v 0.258919 -0.427236 0.248338
v 0.258919 -0.427236 0.248338
v -0.057341 -0.324248 0.086068
v -0.057341 -0.324248 0.086068
v -0.057341 -0.324248 0.086068
v 0.024536 -0.061627 0.086967
v 0.024536 -0.061627 0.086967
v 0.024536 -0.061627 0.086967
v 0.261085 -0.438867 0.085675
v 0.261085 -0.438867 0.085675
v 0.261085 -0.438867 0.085675
v 0.342962 -0.176247 0.086574
v 0.342962 -0.176247 0.086574
v 0.342962 -0.176247 0.086574
v -0.057341 -0.324805 0.248689
v -0.057341 -0.324805 0.248689
v -0.057341 -0.324805 0.248689
v 0.024536 -0.062184 0.249588
v 0.024536 -0.062184 0.249588
v 0.024536 -0.062184 0.249588
v 0.261085 -0.439424 0.248296
v 0.261085 -0.439424 0.248296
v 0.261085 -0.439424 0.248296
v 0.342962 -0.176803 0.249195
v 0.342962 -0.176803 0.249195
v 0.342962 -0.176803 0.249195
vn -0.0000 0.0034 -1.0000
vn 0.9998 0.0180 0.0001
vn -0.0000 -0.0034 1.0000
vn -0.9998 -0.0180 -0.0001
vn 0.0180 -0.9998 -0.0034
vn -0.0180 0.9998 0.0034
vn 0.9547 -0.2976 -0.0010
vn -0.9547 0.2976 0.0010
vn -0.3387 -0.9409 -0.0032
vn 0.3387 0.9409 0.0032
vt 0.970151 0.736734
vt 0.784612 0.571521
vt 0.184590 0.963693
vt 0.997268 0.736734
vt 0.211360 0.963693
vt 0.855013 0.223740
vt 0.970151 0.964222
vt 0.784612 0.795261
vt 0.238130 0.963693
vt 0.997268 0.964222
vt 0.211360 0.963693
vt 0.855013 0.000000
vt 0.703660 0.571521
vt 0.184590 0.882741
vt 1.000000 0.304884
vt 0.211360 0.882741
vt 0.774061 0.223739
vt 0.972883 0.304884
vt 0.703660 0.795261
vt 0.238130 0.882741
vt 1.000000 0.532372
vt 0.211360 0.882741
vt 0.774062 0.000000
vt 0.972883 0.532372
vt 0.553768 0.005910
vt 0.184590 0.882741
vt 0.703660 0.795261
vt 0.690183 0.000000
vt 0.703660 0.930057
vt 0.265308 0.717528
vt 0.553768 0.173891
vt 0.184590 0.717528
vt 0.935732 0.184589
vt 0.690183 0.167981
vt 0.935732 0.319385
vt 0.265308 0.882741
vt 0.265308 0.882741
vt 0.784378 0.795261
vt 0.417354 0.625690
vt 0.784378 0.930057
vt 0.346027 0.717528
vt 0.553768 0.631601
vt 0.265308 0.717528
vt 0.855013 0.184589
vt 0.417354 0.457710
vt 0.855013 0.319385
vt 0.346027 0.882741
vt 0.553768 0.463620
s 0
usemtl Scene_-_Root
f 193/193/47 196/196/47 202/202/47
f 193/193/47 202/202/47 199/199/47
f 201/201/48 203/203/48 214/214/48
f 201/201/48 214/214/48 212/212/48
f 213/213/49 216/216/49 210/210/49
f 213/213/49 210/210/49 207/207/49
f 206/206/50 208/208/50 197/197/50
f 206/206/50 197/197/50 195/195/50
f 200/200/51 211/211/51 205/205/51
f 200/200/51 205/205/51 194/194/51
f 215/215/52 204/204/52 198/198/52
f 215/215/52 198/198/52 209/209/52
f 217/217/47 220/220/47 226/226/47
f 217/217/47 226/226/47 223/223/47
f 225/225/53 227/227/53 238/238/53
f 225/225/53 238/238/53 236/236/53
f 237/237/49 240/240/49 234/234/49
f 237/237/49 234/234/49 231/231/49
f 230/230/54 232/232/54 221/221/54
f 230/230/54 221/221/54 219/219/54
f 224/224/55 235/235/55 229/229/55
f 224/224/55 229/229/55 218/218/55
f 239/239/56 228/228/56 222/222/56
f 239/239/56 222/222/56 233/233/56
